<?xml version="1.0" encoding="UTF-8"?>
<svg width="2000" height="800" viewBox="0 0 2000 800" xmlns="http://www.w3.org/2000/svg">
  <defs>
    <linearGradient id="cyanGrad" x1="0" y1="0" x2="1" y2="1">
      <stop offset="0%" stop-color="#00D1FF"/>
      <stop offset="100%" stop-color="#14B8A6"/>
    </linearGradient>
  </defs>
  <!-- Fondo transparente -->
  <g id="mark" transform="translate(320,400)">
    <!-- nube (tres círculos + base) -->
    <circle cx="0" cy="0" r="72" fill="url(#cyanGrad)"/>
    <circle cx="-84" cy="-40" r="56" fill="url(#cyanGrad)"/>
    <circle cx="84" cy="-46" r="54" fill="url(#cyanGrad)"/>
    <rect x="-120" y="50" width="240" height="80" rx="22" fill="url(#cyanGrad)"/>
    <!-- documento -->
    <rect x="-130" y="-28" width="120" height="148" rx="12" fill="#FFFFFF"/>
    <polygon points="0,0 18,0 18,18" transform="translate(-10,-28)" fill="#E6F3FF"/>
    <rect x="-116" y="-12" width="82" height="10" rx="5" fill="#A0C8DC"/>
    <rect x="-116" y="6" width="62" height="10" rx="5" fill="#A0C8DC"/>
    <rect x="-116" y="24" width="46" height="10" rx="5" fill="#A0C8DC"/>
    <!-- flujo de datos -->
    <g stroke="#BDF6FF" stroke-width="12" stroke-linecap="round" fill="none">
      <line x1="-10" y1="10" x2="110" y2="10"/>
      <line x1="-10" y1="32" x2="150" y2="32"/>
      <line x1="-10" y1="54" x2="90" y2="54"/>
    </g>
    <g fill="#BDF6FF">
      <circle cx="110" cy="10" r="8"/>
      <circle cx="150" cy="32" r="8"/>
      <circle cx="90" cy="54" r="8"/>
    </g>
  </g>
  <!-- Wordmark -->
  <g font-family="Inter, Poppins, Segoe UI, Arial, sans-serif" font-size="132" font-weight="700">
    <text x="620" y="470" fill="#0F172A">Docu</text>
    <text x="930" y="470" fill="#14B8A6">Marval</text>
  </g>
</svg>
